<svg width="32" height="31" viewBox="0 0 32 31" fill="none" xmlns="http://www.w3.org/2000/svg">
<path d="M16 18.6C24.8363 18.6 32 21.8385 32 25.8333V31H0V25.8333C0 21.8385 7.16373 18.6 16 18.6ZM29.8667 25.8333C29.8667 22.9813 23.6587 20.6667 16 20.6667C8.34133 20.6667 2.13333 22.9813 2.13333 25.8333V28.9333H29.8667V25.8333ZM16 0C17.9803 0 19.8795 0.762082 21.2797 2.11859C22.68 3.47511 23.4667 5.31493 23.4667 7.23333C23.4667 9.15173 22.68 10.9916 21.2797 12.3481C19.8795 13.7046 17.9803 14.4667 16 14.4667C14.0197 14.4667 12.1205 13.7046 10.7203 12.3481C9.32 10.9916 8.53333 9.15173 8.53333 7.23333C8.53333 5.31493 9.32 3.47511 10.7203 2.11859C12.1205 0.762082 14.0197 0 16 0ZM16 2.06667C14.5855 2.06667 13.229 2.61101 12.2288 3.57995C11.2286 4.54889 10.6667 5.86305 10.6667 7.23333C10.6667 8.60362 11.2286 9.91778 12.2288 10.8867C13.229 11.8557 14.5855 12.4 16 12.4C17.4145 12.4 18.771 11.8557 19.7712 10.8867C20.7714 9.91778 21.3333 8.60362 21.3333 7.23333C21.3333 5.86305 20.7714 4.54889 19.7712 3.57995C18.771 2.61101 17.4145 2.06667 16 2.06667Z" fill="white"/>
</svg>
