<svg width="1440" height="2810" viewBox="0 0 1440 2810" fill="none" xmlns="http://www.w3.org/2000/svg">
<g clip-path="url(#clip0_130_2)">
<rect width="1440" height="2810" fill="#021321"/>
<circle cx="247.5" cy="709.5" r="191" stroke="#0CD3E0" stroke-width="3"/>
<g filter="url(#filter0_f_130_2)">
<circle cx="247.5" cy="709.5" r="191" stroke="#0CD3E0" stroke-width="3"/>
</g>
<g filter="url(#filter1_f_130_2)">
<circle cx="247.5" cy="709.5" r="191" stroke="#0CD3E0" stroke-width="3"/>
</g>
<circle cx="247" cy="709" r="165" fill="#0CD3E0" fill-opacity="0.25"/>
<circle cx="246.5" cy="708.5" r="132.5" fill="#021321" fill-opacity="0.2"/>
<circle cx="246.5" cy="708.5" r="111.5" fill="#0CD3E0" fill-opacity="0.43"/>
<circle cx="246" cy="708" r="96" fill="#021321" fill-opacity="0.2"/>
<circle cx="245.5" cy="707.5" r="68.5" fill="#021321" fill-opacity="0.32"/>
<g filter="url(#filter2_f_130_2)">
<circle cx="245" cy="707" r="45" fill="#0CD3E0" fill-opacity="0.51"/>
</g>
<g filter="url(#filter3_f_130_2)">
<circle cx="245" cy="707" r="45" fill="#0CD3E0" fill-opacity="0.51"/>
</g>
<circle cx="1231.5" cy="2245.5" r="191" stroke="#0CD3E0" stroke-width="3"/>
<g filter="url(#filter4_f_130_2)">
<circle cx="1231.5" cy="2245.5" r="191" stroke="#0CD3E0" stroke-width="3"/>
</g>
<g filter="url(#filter5_f_130_2)">
<circle cx="1231.5" cy="2245.5" r="191" stroke="#0CD3E0" stroke-width="3"/>
</g>
<circle cx="1231" cy="2245" r="165" fill="#0CD3E0" fill-opacity="0.25"/>
<circle cx="1230.5" cy="2244.5" r="132.5" fill="#021321" fill-opacity="0.2"/>
<circle cx="1230.5" cy="2244.5" r="111.5" fill="#0CD3E0" fill-opacity="0.43"/>
<circle cx="1230" cy="2244" r="96" fill="#021321" fill-opacity="0.2"/>
<circle cx="1229.5" cy="2243.5" r="68.5" fill="#021321" fill-opacity="0.32"/>
<g filter="url(#filter6_f_130_2)">
<circle cx="1229" cy="2243" r="45" fill="#0CD3E0" fill-opacity="0.51"/>
</g>
<g filter="url(#filter7_f_130_2)">
<circle cx="1229" cy="2243" r="45" fill="#0CD3E0" fill-opacity="0.51"/>
</g>
<path d="M1440 106.664L1410.67 86.5703L1381.35 111.213L1352.02 114.936L1322.69 210.994L1293.37 49.9354L1264.04 37.4121L1234.71 149.671L1205.39 164.414L1176.06 186.963L1146.73 131.602L1117.4 156.944L1088.08 65.8233L1058.75 215.905L1029.42 51.5285L1000.1 100.85L970.77 265L941.443 150.31L912.117 38.1162L882.79 177.329L853.463 112.331L824.136 184.458L794.809 112.99L765.482 164.702L736.155 120.485L706.829 198.383L677.502 195.439L648.175 156.656L618.848 162.893L589.521 140.456L560.194 155.439L530.867 110.849L501.541 74.479L472.214 60.6286L442.887 64.9591L413.56 239.038L384.233 140.814L354.906 158.619L325.579 238.505L296.253 2L266.926 245.317L237.599 115.399L208.272 89.6046L178.945 148.858L149.618 12.321L120.291 162.254L90.9646 171.994L61.6377 67.9608L32.3109 148.44L3 151.29" stroke="#0CD3E0" stroke-width="3" stroke-linecap="round" stroke-linejoin="round"/>
<g filter="url(#filter8_f_130_2)">
<path d="M1440 106.664L1410.67 86.5703L1381.35 111.213L1352.02 114.936L1322.69 210.994L1293.37 49.9354L1264.04 37.4121L1234.71 149.671L1205.39 164.414L1176.06 186.963L1146.73 131.602L1117.4 156.944L1088.08 65.8233L1058.75 215.905L1029.42 51.5285L1000.1 100.85L970.77 265L941.443 150.31L912.117 38.1162L882.79 177.329L853.463 112.331L824.136 184.458L794.809 112.99L765.482 164.702L736.155 120.485L706.829 198.383L677.502 195.439L648.175 156.656L618.848 162.893L589.521 140.456L560.194 155.439L530.867 110.849L501.541 74.479L472.214 60.6286L442.887 64.9591L413.56 239.038L384.233 140.814L354.906 158.619L325.579 238.505L296.253 2L266.926 245.317L237.599 115.399L208.272 89.6046L178.945 148.858L149.618 12.321L120.291 162.254L90.9646 171.994L61.6377 67.9608L32.3109 148.44L3 151.29" stroke="#0CD3E0" stroke-width="3" stroke-linecap="round" stroke-linejoin="round"/>
</g>
<g filter="url(#filter9_f_130_2)">
<path d="M1440 106.664L1410.67 86.5703L1381.35 111.213L1352.02 114.936L1322.69 210.994L1293.37 49.9354L1264.04 37.4121L1234.71 149.671L1205.39 164.414L1176.06 186.963L1146.73 131.602L1117.4 156.944L1088.08 65.8233L1058.75 215.905L1029.42 51.5285L1000.1 100.85L970.77 265L941.443 150.31L912.117 38.1162L882.79 177.329L853.463 112.331L824.136 184.458L794.809 112.99L765.482 164.702L736.155 120.485L706.829 198.383L677.502 195.439L648.175 156.656L618.848 162.893L589.521 140.456L560.194 155.439L530.867 110.849L501.541 74.479L472.214 60.6286L442.887 64.9591L413.56 239.038L384.233 140.814L354.906 158.619L325.579 238.505L296.253 2L266.926 245.317L237.599 115.399L208.272 89.6046L178.945 148.858L149.618 12.321L120.291 162.254L90.9646 171.994L61.6377 67.9608L32.3109 148.44L3 151.29" stroke="#0CD3E0" stroke-width="3" stroke-linecap="round" stroke-linejoin="round"/>
</g>
<g filter="url(#filter10_f_130_2)">
<path d="M1440 106.664L1410.67 86.5703L1381.35 111.213L1352.02 114.936L1322.69 210.994L1293.37 49.9354L1264.04 37.4121L1234.71 149.671L1205.39 164.414L1176.06 186.963L1146.73 131.602L1117.4 156.944L1088.08 65.8233L1058.75 215.905L1029.42 51.5285L1000.1 100.85L970.77 265L941.443 150.31L912.117 38.1162L882.79 177.329L853.463 112.331L824.136 184.458L794.809 112.99L765.482 164.702L736.155 120.485L706.829 198.383L677.502 195.439L648.175 156.656L618.848 162.893L589.521 140.456L560.194 155.439L530.867 110.849L501.541 74.479L472.214 60.6286L442.887 64.9591L413.56 239.038L384.233 140.814L354.906 158.619L325.579 238.505L296.253 2L266.926 245.317L237.599 115.399L208.272 89.6046L178.945 148.858L149.618 12.321L120.291 162.254L90.9646 171.994L61.6377 67.9608L32.3109 148.44L3 151.29" stroke="#0CD3E0" stroke-width="3" stroke-linecap="round" stroke-linejoin="round"/>
</g>
<path d="M1437 1380.66L1407.67 1360.57L1378.35 1385.21L1349.02 1388.94L1319.69 1484.99L1290.37 1323.94L1261.04 1311.41L1231.71 1423.67L1202.39 1438.41L1173.06 1460.96L1143.73 1405.6L1114.4 1430.94L1085.08 1339.82L1055.75 1489.9L1026.42 1325.53L997.097 1374.85L967.77 1539L938.443 1424.31L909.117 1312.12L879.79 1451.33L850.463 1386.33L821.136 1458.46L791.809 1386.99L762.482 1438.7L733.155 1394.49L703.829 1472.38L674.502 1469.44L645.175 1430.66L615.848 1436.89L586.521 1414.46L557.194 1429.44L527.867 1384.85L498.541 1348.48L469.214 1334.63L439.887 1338.96L410.56 1513.04L381.233 1414.81L351.906 1432.62L322.579 1512.51L293.253 1276L263.926 1519.32L234.599 1389.4L205.272 1363.6L175.945 1422.86L146.618 1286.32L117.291 1436.25L87.9646 1445.99L58.6377 1341.96L29.3109 1422.44L0 1425.29" stroke="#0CD3E0" stroke-width="3" stroke-linecap="round" stroke-linejoin="round"/>
<g filter="url(#filter11_f_130_2)">
<path d="M1437 1380.66L1407.67 1360.57L1378.35 1385.21L1349.02 1388.94L1319.69 1484.99L1290.37 1323.94L1261.04 1311.41L1231.71 1423.67L1202.39 1438.41L1173.06 1460.96L1143.73 1405.6L1114.4 1430.94L1085.08 1339.82L1055.75 1489.9L1026.42 1325.53L997.097 1374.85L967.77 1539L938.443 1424.31L909.117 1312.12L879.79 1451.33L850.463 1386.33L821.136 1458.46L791.809 1386.99L762.482 1438.7L733.155 1394.49L703.829 1472.38L674.502 1469.44L645.175 1430.66L615.848 1436.89L586.521 1414.46L557.194 1429.44L527.867 1384.85L498.541 1348.48L469.214 1334.63L439.887 1338.96L410.56 1513.04L381.233 1414.81L351.906 1432.62L322.579 1512.51L293.253 1276L263.926 1519.32L234.599 1389.4L205.272 1363.6L175.945 1422.86L146.618 1286.32L117.291 1436.25L87.9646 1445.99L58.6377 1341.96L29.3109 1422.44L0 1425.29" stroke="#0CD3E0" stroke-width="3" stroke-linecap="round" stroke-linejoin="round"/>
</g>
<g filter="url(#filter12_f_130_2)">
<path d="M1437 1380.66L1407.67 1360.57L1378.35 1385.21L1349.02 1388.94L1319.69 1484.99L1290.37 1323.94L1261.04 1311.41L1231.71 1423.67L1202.39 1438.41L1173.06 1460.96L1143.73 1405.6L1114.4 1430.94L1085.08 1339.82L1055.75 1489.9L1026.42 1325.53L997.097 1374.85L967.77 1539L938.443 1424.31L909.117 1312.12L879.79 1451.33L850.463 1386.33L821.136 1458.46L791.809 1386.99L762.482 1438.7L733.155 1394.49L703.829 1472.38L674.502 1469.44L645.175 1430.66L615.848 1436.89L586.521 1414.46L557.194 1429.44L527.867 1384.85L498.541 1348.48L469.214 1334.63L439.887 1338.96L410.56 1513.04L381.233 1414.81L351.906 1432.62L322.579 1512.51L293.253 1276L263.926 1519.32L234.599 1389.4L205.272 1363.6L175.945 1422.86L146.618 1286.32L117.291 1436.25L87.9646 1445.99L58.6377 1341.96L29.3109 1422.44L0 1425.29" stroke="#0CD3E0" stroke-width="3" stroke-linecap="round" stroke-linejoin="round"/>
</g>
<g filter="url(#filter13_f_130_2)">
<path d="M1437 1380.66L1407.67 1360.57L1378.35 1385.21L1349.02 1388.94L1319.69 1484.99L1290.37 1323.94L1261.04 1311.41L1231.71 1423.67L1202.39 1438.41L1173.06 1460.96L1143.73 1405.6L1114.4 1430.94L1085.08 1339.82L1055.75 1489.9L1026.42 1325.53L997.097 1374.85L967.77 1539L938.443 1424.31L909.117 1312.12L879.79 1451.33L850.463 1386.33L821.136 1458.46L791.809 1386.99L762.482 1438.7L733.155 1394.49L703.829 1472.38L674.502 1469.44L645.175 1430.66L615.848 1436.89L586.521 1414.46L557.194 1429.44L527.867 1384.85L498.541 1348.48L469.214 1334.63L439.887 1338.96L410.56 1513.04L381.233 1414.81L351.906 1432.62L322.579 1512.51L293.253 1276L263.926 1519.32L234.599 1389.4L205.272 1363.6L175.945 1422.86L146.618 1286.32L117.291 1436.25L87.9646 1445.99L58.6377 1341.96L29.3109 1422.44L0 1425.29" stroke="#0CD3E0" stroke-width="3" stroke-linecap="round" stroke-linejoin="round"/>
</g>
</g>
<defs>
<filter id="filter0_f_130_2" x="35" y="497" width="425" height="425" filterUnits="userSpaceOnUse" color-interpolation-filters="sRGB">
<feFlood flood-opacity="0" result="BackgroundImageFix"/>
<feBlend mode="normal" in="SourceGraphic" in2="BackgroundImageFix" result="shape"/>
<feGaussianBlur stdDeviation="10" result="effect1_foregroundBlur_130_2"/>
</filter>
<filter id="filter1_f_130_2" x="35" y="497" width="425" height="425" filterUnits="userSpaceOnUse" color-interpolation-filters="sRGB">
<feFlood flood-opacity="0" result="BackgroundImageFix"/>
<feBlend mode="normal" in="SourceGraphic" in2="BackgroundImageFix" result="shape"/>
<feGaussianBlur stdDeviation="10" result="effect1_foregroundBlur_130_2"/>
</filter>
<filter id="filter2_f_130_2" x="181" y="643" width="128" height="128" filterUnits="userSpaceOnUse" color-interpolation-filters="sRGB">
<feFlood flood-opacity="0" result="BackgroundImageFix"/>
<feBlend mode="normal" in="SourceGraphic" in2="BackgroundImageFix" result="shape"/>
<feGaussianBlur stdDeviation="9.5" result="effect1_foregroundBlur_130_2"/>
</filter>
<filter id="filter3_f_130_2" x="181" y="643" width="128" height="128" filterUnits="userSpaceOnUse" color-interpolation-filters="sRGB">
<feFlood flood-opacity="0" result="BackgroundImageFix"/>
<feBlend mode="normal" in="SourceGraphic" in2="BackgroundImageFix" result="shape"/>
<feGaussianBlur stdDeviation="9.5" result="effect1_foregroundBlur_130_2"/>
</filter>
<filter id="filter4_f_130_2" x="1019" y="2033" width="425" height="425" filterUnits="userSpaceOnUse" color-interpolation-filters="sRGB">
<feFlood flood-opacity="0" result="BackgroundImageFix"/>
<feBlend mode="normal" in="SourceGraphic" in2="BackgroundImageFix" result="shape"/>
<feGaussianBlur stdDeviation="10" result="effect1_foregroundBlur_130_2"/>
</filter>
<filter id="filter5_f_130_2" x="1019" y="2033" width="425" height="425" filterUnits="userSpaceOnUse" color-interpolation-filters="sRGB">
<feFlood flood-opacity="0" result="BackgroundImageFix"/>
<feBlend mode="normal" in="SourceGraphic" in2="BackgroundImageFix" result="shape"/>
<feGaussianBlur stdDeviation="10" result="effect1_foregroundBlur_130_2"/>
</filter>
<filter id="filter6_f_130_2" x="1165" y="2179" width="128" height="128" filterUnits="userSpaceOnUse" color-interpolation-filters="sRGB">
<feFlood flood-opacity="0" result="BackgroundImageFix"/>
<feBlend mode="normal" in="SourceGraphic" in2="BackgroundImageFix" result="shape"/>
<feGaussianBlur stdDeviation="9.5" result="effect1_foregroundBlur_130_2"/>
</filter>
<filter id="filter7_f_130_2" x="1165" y="2179" width="128" height="128" filterUnits="userSpaceOnUse" color-interpolation-filters="sRGB">
<feFlood flood-opacity="0" result="BackgroundImageFix"/>
<feBlend mode="normal" in="SourceGraphic" in2="BackgroundImageFix" result="shape"/>
<feGaussianBlur stdDeviation="9.5" result="effect1_foregroundBlur_130_2"/>
</filter>
<filter id="filter8_f_130_2" x="-41.5" y="-42.5" width="1526" height="352" filterUnits="userSpaceOnUse" color-interpolation-filters="sRGB">
<feFlood flood-opacity="0" result="BackgroundImageFix"/>
<feBlend mode="normal" in="SourceGraphic" in2="BackgroundImageFix" result="shape"/>
<feGaussianBlur stdDeviation="21.5" result="effect1_foregroundBlur_130_2"/>
</filter>
<filter id="filter9_f_130_2" x="-41.5" y="-42.5" width="1526" height="352" filterUnits="userSpaceOnUse" color-interpolation-filters="sRGB">
<feFlood flood-opacity="0" result="BackgroundImageFix"/>
<feBlend mode="normal" in="SourceGraphic" in2="BackgroundImageFix" result="shape"/>
<feGaussianBlur stdDeviation="21.5" result="effect1_foregroundBlur_130_2"/>
</filter>
<filter id="filter10_f_130_2" x="-41.5" y="-42.5" width="1526" height="352" filterUnits="userSpaceOnUse" color-interpolation-filters="sRGB">
<feFlood flood-opacity="0" result="BackgroundImageFix"/>
<feBlend mode="normal" in="SourceGraphic" in2="BackgroundImageFix" result="shape"/>
<feGaussianBlur stdDeviation="21.5" result="effect1_foregroundBlur_130_2"/>
</filter>
<filter id="filter11_f_130_2" x="-44.5" y="1231.5" width="1526" height="352" filterUnits="userSpaceOnUse" color-interpolation-filters="sRGB">
<feFlood flood-opacity="0" result="BackgroundImageFix"/>
<feBlend mode="normal" in="SourceGraphic" in2="BackgroundImageFix" result="shape"/>
<feGaussianBlur stdDeviation="21.5" result="effect1_foregroundBlur_130_2"/>
</filter>
<filter id="filter12_f_130_2" x="-44.5" y="1231.5" width="1526" height="352" filterUnits="userSpaceOnUse" color-interpolation-filters="sRGB">
<feFlood flood-opacity="0" result="BackgroundImageFix"/>
<feBlend mode="normal" in="SourceGraphic" in2="BackgroundImageFix" result="shape"/>
<feGaussianBlur stdDeviation="21.5" result="effect1_foregroundBlur_130_2"/>
</filter>
<filter id="filter13_f_130_2" x="-44.5" y="1231.5" width="1526" height="352" filterUnits="userSpaceOnUse" color-interpolation-filters="sRGB">
<feFlood flood-opacity="0" result="BackgroundImageFix"/>
<feBlend mode="normal" in="SourceGraphic" in2="BackgroundImageFix" result="shape"/>
<feGaussianBlur stdDeviation="21.5" result="effect1_foregroundBlur_130_2"/>
</filter>
<clipPath id="clip0_130_2">
<rect width="1440" height="2810" fill="white"/>
</clipPath>
</defs>
</svg>
