<svg width="19" height="18" viewBox="0 0 19 18" fill="none" xmlns="http://www.w3.org/2000/svg">
<path fill-rule="evenodd" clip-rule="evenodd" d="M1.26734 17.5904C1.07814 17.4045 0.970529 17.1511 0.968174 16.8859C0.965818 16.6207 1.06891 16.3654 1.25478 16.1763L8.26277 9.04267L1.12918 2.03467C0.93999 1.84881 0.832379 1.5954 0.830023 1.33019C0.827668 1.06499 0.930762 0.809709 1.11663 0.620514C1.30249 0.431319 1.5559 0.323707 1.8211 0.321352C2.08631 0.318997 2.34159 0.422091 2.53078 0.607955L9.66437 7.61595L16.6724 0.482364C16.8582 0.293169 17.1116 0.185557 17.3768 0.183202C17.642 0.180846 17.8973 0.283941 18.0865 0.469805C18.2757 0.655669 18.3833 0.909076 18.3857 1.17428C18.388 1.43949 18.2849 1.69477 18.0991 1.88396L11.0911 9.01755L18.2247 16.0255C18.4139 16.2114 18.5215 16.4648 18.5238 16.73C18.5262 16.9952 18.4231 17.2505 18.2372 17.4397C18.0514 17.6289 17.798 17.7365 17.5328 17.7389C17.2675 17.7412 17.0123 17.6381 16.8231 17.4523L9.68949 10.4443L2.68149 17.5778C2.49563 17.767 2.24222 17.8747 1.97702 17.877C1.71181 17.8794 1.45653 17.7763 1.26734 17.5904Z" fill="#0CD3E0"/>
</svg>
