<svg width="27" height="36" viewBox="0 0 27 36" fill="none" xmlns="http://www.w3.org/2000/svg">
<path d="M12.0465 13.1715C12.2577 12.9603 12.3764 12.6737 12.3764 12.375C12.3764 12.0763 12.2577 11.7897 12.0465 11.5785C11.8353 11.3673 11.5487 11.2486 11.25 11.2486C10.9513 11.2486 10.6647 11.3673 10.4535 11.5785L7.2765 14.7555L6.38325 13.941C6.16131 13.7513 5.87431 13.6553 5.5829 13.6733C5.29149 13.6913 5.01849 13.8219 4.8216 14.0375C4.62471 14.2531 4.51934 14.5368 4.52777 14.8286C4.53619 15.1205 4.65775 15.3976 4.86675 15.6015L6.55425 17.1428C6.76806 17.3374 7.04863 17.4423 7.33771 17.4356C7.62679 17.4289 7.90219 17.3111 8.10675 17.1067L12.0442 13.1693L12.0465 13.1715ZM12.0465 22.8285C12.1513 22.933 12.2344 23.0571 12.2911 23.1938C12.3478 23.3305 12.377 23.477 12.377 23.625C12.377 23.773 12.3478 23.9195 12.2911 24.0562C12.2344 24.1929 12.1513 24.317 12.0465 24.4215L8.109 28.359C7.90404 28.5637 7.62801 28.6815 7.3384 28.6878C7.04878 28.6941 6.7679 28.5884 6.55425 28.3928L4.86675 26.8515C4.65775 26.6476 4.53619 26.3705 4.52777 26.0786C4.51934 25.7868 4.62471 25.5031 4.8216 25.2875C5.01849 25.0719 5.29149 24.9413 5.5829 24.9233C5.87431 24.9053 6.16131 25.0013 6.38325 25.191L7.2765 26.0077L10.4535 22.8285C10.558 22.7237 10.6821 22.6406 10.8188 22.5839C10.9555 22.5272 11.102 22.498 11.25 22.498C11.398 22.498 11.5445 22.5272 11.6812 22.5839C11.8179 22.6406 11.942 22.7237 12.0465 22.8285ZM15.75 24.1875C15.4516 24.1875 15.1655 24.306 14.9545 24.517C14.7435 24.728 14.625 25.0141 14.625 25.3125C14.625 25.6109 14.7435 25.897 14.9545 26.108C15.1655 26.319 15.4516 26.4375 15.75 26.4375H21.375C21.6734 26.4375 21.9595 26.319 22.1705 26.108C22.3815 25.897 22.5 25.6109 22.5 25.3125C22.5 25.0141 22.3815 24.728 22.1705 24.517C21.9595 24.306 21.6734 24.1875 21.375 24.1875H15.75ZM14.625 14.0625C14.625 13.7641 14.7435 13.478 14.9545 13.267C15.1655 13.056 15.4516 12.9375 15.75 12.9375H21.375C21.6734 12.9375 21.9595 13.056 22.1705 13.267C22.3815 13.478 22.5 13.7641 22.5 14.0625C22.5 14.3609 22.3815 14.647 22.1705 14.858C21.9595 15.069 21.6734 15.1875 21.375 15.1875H15.75C15.4516 15.1875 15.1655 15.069 14.9545 14.858C14.7435 14.647 14.625 14.3609 14.625 14.0625ZM10.125 4.64031e-07C9.42677 -0.00036558 8.74561 0.215838 8.1754 0.618813C7.60518 1.02179 7.17399 1.5917 6.94125 2.25H3.375C2.47989 2.25 1.62145 2.60558 0.988514 3.23852C0.355579 3.87145 0 4.7299 0 5.625V32.625C0 33.5201 0.355579 34.3785 0.988514 35.0115C1.62145 35.6444 2.47989 36 3.375 36H23.625C24.5201 36 25.3786 35.6444 26.0115 35.0115C26.6444 34.3785 27 33.5201 27 32.625V5.625C27 4.7299 26.6444 3.87145 26.0115 3.23852C25.3786 2.60558 24.5201 2.25 23.625 2.25H20.0588C19.826 1.5917 19.3948 1.02179 18.8246 0.618813C18.2544 0.215838 17.5732 -0.00036558 16.875 4.64031e-07H10.125ZM9 3.375C9 3.07663 9.11853 2.79048 9.3295 2.57951C9.54048 2.36853 9.82663 2.25 10.125 2.25H16.875C17.1734 2.25 17.4595 2.36853 17.6705 2.57951C17.8815 2.79048 18 3.07663 18 3.375C18 3.67337 17.8815 3.95952 17.6705 4.1705C17.4595 4.38147 17.1734 4.5 16.875 4.5H10.125C9.82663 4.5 9.54048 4.38147 9.3295 4.1705C9.11853 3.95952 9 3.67337 9 3.375ZM3.375 4.5H6.94125C7.17399 5.1583 7.60518 5.72821 8.1754 6.13119C8.74561 6.53416 9.42677 6.75037 10.125 6.75H16.875C17.5732 6.75037 18.2544 6.53416 18.8246 6.13119C19.3948 5.72821 19.826 5.1583 20.0588 4.5H23.625C23.9234 4.5 24.2095 4.61853 24.4205 4.82951C24.6315 5.04048 24.75 5.32663 24.75 5.625V32.625C24.75 32.9234 24.6315 33.2095 24.4205 33.4205C24.2095 33.6315 23.9234 33.75 23.625 33.75H3.375C3.07663 33.75 2.79048 33.6315 2.5795 33.4205C2.36853 33.2095 2.25 32.9234 2.25 32.625V5.625C2.25 5.32663 2.36853 5.04048 2.5795 4.82951C2.79048 4.61853 3.07663 4.5 3.375 4.5Z" fill="white"/>
</svg>
