<svg width="257" height="127" viewBox="0 0 257 127" fill="none" xmlns="http://www.w3.org/2000/svg">
<g filter="url(#filter0_d_106_219)">
<path d="M28.9715 47H26.9715V49H28.9715V47ZM28.9715 20.576H30.9715V18.576H28.9715V20.576ZM20.3675 20.576H18.3675V22.576H20.3675V20.576ZM20.3675 17.3V15.3H18.3675V17.3H20.3675ZM41.2475 17.3H43.2475V15.3H41.2475V17.3ZM41.2475 20.576V22.576H43.2475V20.576H41.2475ZM32.6255 20.576V18.576H30.6255V20.576H32.6255ZM32.6255 47V49H34.6255V47H32.6255ZM30.9715 47V20.576H26.9715V47H30.9715ZM28.9715 18.576H20.3675V22.576H28.9715V18.576ZM22.3675 20.576V17.3H18.3675V20.576H22.3675ZM20.3675 19.3H41.2475V15.3H20.3675V19.3ZM39.2475 17.3V20.576H43.2475V17.3H39.2475ZM41.2475 18.576H32.6255V22.576H41.2475V18.576ZM30.6255 20.576V47H34.6255V20.576H30.6255ZM32.6255 45H28.9715V49H32.6255V45ZM50.8927 47H48.8927V49H50.8927V47ZM50.8927 17.3V15.3H48.8927V17.3H50.8927ZM64.4287 18.326L63.5706 20.1326L64.4287 18.326ZM67.7587 21.278L66.0494 22.3164L66.0551 22.3258L66.0609 22.3351L67.7587 21.278ZM68.0287 30.026L69.814 30.9275L68.0287 30.026ZM65.4007 32.996L64.2832 31.3373L64.2751 31.3428L65.4007 32.996ZM61.3507 34.508L61.0488 32.5309L57.6578 33.0486L59.7788 35.7446L61.3507 34.508ZM71.1787 47V49H75.2969L72.7505 45.7634L71.1787 47ZM66.5347 47L64.9418 48.2094L65.5421 49H66.5347V47ZM57.3367 34.886L58.9296 33.6766L58.3293 32.886H57.3367V34.886ZM54.5467 34.886V32.886H52.5467V34.886H54.5467ZM54.5467 47V49H56.5467V47H54.5467ZM54.5467 31.772H52.5467V33.772H54.5467V31.772ZM61.9807 31.07L61.1466 29.2522L61.9807 31.07ZM64.3387 29.072L66.0241 30.1488L66.0308 30.1382L64.3387 29.072ZM63.3487 21.764L62.0623 23.2954L62.0698 23.3017L63.3487 21.764ZM54.5467 20.252V18.252H52.5467V20.252H54.5467ZM52.8927 47V17.3H48.8927V47H52.8927ZM50.8927 19.3H59.3167V15.3H50.8927V19.3ZM59.3167 19.3C61.0559 19.3 62.454 19.6022 63.5706 20.1326L65.2868 16.5194C63.5233 15.6818 61.5135 15.3 59.3167 15.3V19.3ZM63.5706 20.1326C64.6806 20.6598 65.4847 21.3868 66.0494 22.3164L69.468 20.2396C68.4727 18.6012 67.0568 17.3602 65.2868 16.5194L63.5706 20.1326ZM66.0609 22.3351C66.6201 23.2332 66.9467 24.3808 66.9467 25.868H70.9467C70.9467 23.7792 70.4813 21.8668 69.4565 20.2209L66.0609 22.3351ZM66.9467 25.868C66.9467 27.1617 66.6945 28.231 66.2434 29.1245L69.814 30.9275C70.5868 29.397 70.9467 27.6943 70.9467 25.868H66.9467ZM66.2434 29.1245C65.7876 30.0272 65.1432 30.7579 64.2832 31.3373L66.5181 34.6547C67.9382 33.6981 69.0458 32.4488 69.814 30.9275L66.2434 29.1245ZM64.2751 31.3428C63.4317 31.917 62.3741 32.3286 61.0488 32.5309L61.6525 36.4851C63.4712 36.2074 65.1137 35.611 66.5263 34.6492L64.2751 31.3428ZM59.7788 35.7446L69.6068 48.2366L72.7505 45.7634L62.9225 33.2714L59.7788 35.7446ZM71.1787 45H66.5347V49H71.1787V45ZM68.1276 45.7906L58.9296 33.6766L55.7438 36.0954L64.9418 48.2094L68.1276 45.7906ZM57.3367 32.886H54.5467V36.886H57.3367V32.886ZM52.5467 34.886V47H56.5467V34.886H52.5467ZM54.5467 45H50.8927V49H54.5467V45ZM54.5467 33.772H58.3267V29.772H54.5467V33.772ZM58.3267 33.772C59.9576 33.772 61.474 33.503 62.8147 32.8878L61.1466 29.2522C60.4474 29.573 59.5278 29.772 58.3267 29.772V33.772ZM62.8147 32.8878C64.1495 32.2754 65.2459 31.3668 66.0241 30.1488L62.6533 27.9952C62.3275 28.5052 61.8519 28.9286 61.1466 29.2522L62.8147 32.8878ZM66.0308 30.1382C66.8142 28.8949 67.1667 27.4742 67.1667 25.958H63.1667C63.1667 26.8418 62.9671 27.4971 62.6466 28.0058L66.0308 30.1382ZM67.1667 25.958C67.1667 23.6653 66.3611 21.6681 64.6276 20.2263L62.0698 23.3017C62.7603 23.8759 63.1667 24.6747 63.1667 25.958H67.1667ZM64.6351 20.2326C62.9608 18.8262 60.7713 18.252 58.3267 18.252V22.252C60.1781 22.252 61.3365 22.6858 62.0623 23.2954L64.6351 20.2326ZM58.3267 18.252H54.5467V22.252H58.3267V18.252ZM52.5467 20.252V31.772H56.5467V20.252H52.5467ZM76.9502 47L75.0906 46.264L74.0078 49H76.9502V47ZM88.7042 17.3V15.3H87.3448L86.8446 16.564L88.7042 17.3ZM92.1062 17.3L93.9659 16.564L93.4656 15.3H92.1062V17.3ZM103.86 47V49H106.803L105.72 46.264L103.86 47ZM99.9182 47L98.0489 47.7112L98.5393 49H99.9182V47ZM96.6242 38.342L98.4935 37.6308L98.0032 36.342H96.6242V38.342ZM84.1862 38.342V36.342H82.81L82.3182 37.6274L84.1862 38.342ZM80.8742 47V49H82.2505L82.7422 47.7146L80.8742 47ZM85.4282 35.12L83.5611 34.4033L82.5182 37.12H85.4282V35.12ZM95.3822 35.12V37.12H98.296L97.2485 34.401L95.3822 35.12ZM90.3962 22.178L92.2625 21.459L90.3928 16.606L88.5291 21.4613L90.3962 22.178ZM78.8099 47.736L90.5639 18.036L86.8446 16.564L75.0906 46.264L78.8099 47.736ZM88.7042 19.3H92.1062V15.3H88.7042V19.3ZM90.2466 18.036L102.001 47.736L105.72 46.264L93.9659 16.564L90.2466 18.036ZM103.86 45H99.9182V49H103.86V45ZM101.787 46.2888L98.4935 37.6308L94.7549 39.0532L98.0489 47.7112L101.787 46.2888ZM96.6242 36.342H84.1862V40.342H96.6242V36.342ZM82.3182 37.6274L79.0062 46.2854L82.7422 47.7146L86.0542 39.0566L82.3182 37.6274ZM80.8742 45H76.9502V49H80.8742V45ZM85.4282 37.12H95.3822V33.12H85.4282V37.12ZM97.2485 34.401L92.2625 21.459L88.5299 22.897L93.5159 35.839L97.2485 34.401ZM88.5291 21.4613L83.5611 34.4033L87.2954 35.8367L92.2634 22.8947L88.5291 21.4613ZM113.35 47H111.35V49H113.35V47ZM113.35 17.3V15.3H111.35V17.3H113.35ZM126.364 18.434L127.134 16.5882V16.5882L126.364 18.434ZM131.116 21.602L129.702 23.0162L129.708 23.0225L129.714 23.0287L131.116 21.602ZM134.302 26.336L132.456 27.1061L132.459 27.1135L132.462 27.1209L134.302 26.336ZM134.32 38L136.164 38.7745V38.7745L134.32 38ZM131.134 42.734L132.542 44.1545L132.542 44.1544L131.134 42.734ZM126.364 45.884L127.124 47.7341L127.13 47.7316L126.364 45.884ZM117.004 43.724H115.004V45.724H117.004V43.724ZM124.636 42.86L125.401 44.708L125.407 44.7052L125.414 44.7024L124.636 42.86ZM128.272 40.412L126.85 39.0059L126.85 39.006L128.272 40.412ZM130.702 36.722L128.852 35.9629L130.702 36.722ZM130.702 27.578L128.852 28.3371L130.702 27.578ZM128.272 23.906L126.849 25.312L126.858 25.3202L128.272 23.906ZM124.636 21.458L123.858 23.3004L123.858 23.3004L124.636 21.458ZM117.004 20.576V18.576H115.004V20.576H117.004ZM115.35 47V17.3H111.35V47H115.35ZM113.35 19.3H120.478V15.3H113.35V19.3ZM120.478 19.3C122.346 19.3 124.044 19.6331 125.594 20.2798L127.134 16.5882C125.06 15.7229 122.834 15.3 120.478 15.3V19.3ZM125.594 20.2798C127.171 20.9378 128.535 21.8492 129.702 23.0162L132.53 20.1878C130.985 18.6428 129.181 17.4422 127.134 16.5882L125.594 20.2798ZM129.714 23.0287C130.887 24.1811 131.8 25.5344 132.456 27.1061L136.148 25.5659C135.291 23.5136 134.08 21.7109 132.518 20.1753L129.714 23.0287ZM132.462 27.1209C133.117 28.6564 133.454 30.3315 133.454 32.168H137.454C137.454 29.8285 137.022 27.6156 136.141 25.5511L132.462 27.1209ZM133.454 32.168C133.454 34.0088 133.122 35.6874 132.476 37.2255L136.164 38.7745C137.03 36.7126 137.454 34.5032 137.454 32.168H133.454ZM132.476 37.2255C131.82 38.7871 130.905 40.1448 129.726 41.3136L132.542 44.1544C134.099 42.6112 135.308 40.8129 136.164 38.7745L132.476 37.2255ZM129.726 41.3135C128.561 42.4686 127.191 43.3763 125.598 44.0364L127.13 47.7316C129.185 46.8797 130.995 45.6874 132.542 44.1545L129.726 41.3135ZM125.604 44.0339C124.052 44.6714 122.35 45 120.478 45V49C122.83 49 125.052 48.5846 127.124 47.7341L125.604 44.0339ZM120.478 45H113.35V49H120.478V45ZM117.004 45.724H120.118V41.724H117.004V45.724ZM120.118 45.724C121.98 45.724 123.748 45.3917 125.401 44.708L123.871 41.012C122.739 41.4803 121.495 41.724 120.118 41.724V45.724ZM125.414 44.7024C127.04 44.0155 128.473 43.0537 129.694 41.818L126.85 39.006C126.007 39.8583 125.016 40.5285 123.858 41.0176L125.414 44.7024ZM129.694 41.8181C130.926 40.5723 131.879 39.1212 132.552 37.4811L128.852 35.9629C128.372 37.1308 127.706 38.1397 126.85 39.0059L129.694 41.8181ZM132.552 37.4811C133.235 35.8168 133.566 34.0325 133.566 32.15H129.566C129.566 33.5555 129.321 34.8192 128.852 35.9629L132.552 37.4811ZM133.566 32.15C133.566 30.2675 133.235 28.4832 132.552 26.8189L128.852 28.3371C129.321 29.4808 129.566 30.7445 129.566 32.15H133.566ZM132.552 26.8189C131.879 25.1768 130.923 23.7284 129.686 22.4918L126.858 25.3202C127.709 26.1716 128.373 27.1712 128.852 28.3371L132.552 26.8189ZM129.694 22.5C128.473 21.2643 127.04 20.3025 125.414 19.6156L123.858 23.3004C125.016 23.7895 126.007 24.4597 126.85 25.312L129.694 22.5ZM125.414 19.6156C123.758 18.9163 121.986 18.576 120.118 18.576V22.576C121.49 22.576 122.729 22.8237 123.858 23.3004L125.414 19.6156ZM120.118 18.576H117.004V22.576H120.118V18.576ZM115.004 20.576V43.724H119.004V20.576H115.004ZM146.125 47H144.125V49H146.125V47ZM146.125 17.3V15.3H144.125V17.3H146.125ZM149.779 17.3H151.779V15.3H149.779V17.3ZM149.779 47V49H151.779V47H149.779ZM148.125 47V17.3H144.125V47H148.125ZM146.125 19.3H149.779V15.3H146.125V19.3ZM147.779 17.3V47H151.779V17.3H147.779ZM149.779 45H146.125V49H149.779V45ZM162.413 47H160.413V49H162.413V47ZM162.413 17.3V15.3H160.413V17.3H162.413ZM166.067 17.3L167.753 16.2242L167.163 15.3H166.067V17.3ZM181.079 40.826L179.393 41.9018L183.079 47.6783V40.826H181.079ZM181.079 17.3V15.3H179.079V17.3H181.079ZM184.733 17.3H186.733V15.3H184.733V17.3ZM184.733 47V49H186.733V47H184.733ZM181.079 47L179.393 48.0764L179.983 49H181.079V47ZM166.067 23.492L167.752 22.4156L164.067 16.6441V23.492H166.067ZM166.067 47V49H168.067V47H166.067ZM164.413 47V17.3H160.413V47H164.413ZM162.413 19.3H166.067V15.3H162.413V19.3ZM164.381 18.3758L179.393 41.9018L182.765 39.7502L167.753 16.2242L164.381 18.3758ZM183.079 40.826V17.3H179.079V40.826H183.079ZM181.079 19.3H184.733V15.3H181.079V19.3ZM182.733 17.3V47H186.733V17.3H182.733ZM184.733 45H181.079V49H184.733V45ZM182.764 45.9236L167.752 22.4156L164.381 24.5684L179.393 48.0764L182.764 45.9236ZM164.067 23.492V47H168.067V23.492H164.067ZM166.067 45H162.413V49H166.067V45ZM204.334 46.406L203.515 48.2305L203.522 48.2339L203.529 48.2372L204.334 46.406ZM199.69 43.112L198.233 44.482L198.239 44.4885L199.69 43.112ZM196.594 38.216L194.735 38.9547L194.737 38.9588L196.594 38.216ZM196.486 26.372L198.365 27.0555V27.0555L196.486 26.372ZM199.42 21.44L197.927 20.109L199.42 21.44ZM204.1 18.02L203.272 16.1993L203.268 16.2013L204.1 18.02ZM214.576 17.3L214.058 19.2319L214.068 19.2346L214.079 19.2372L214.576 17.3ZM218.356 18.794L217.383 20.5415L218.356 18.794ZM221.452 21.098L223.131 22.1849L224.016 20.818L222.856 19.6743L221.452 21.098ZM219.634 23.906L218.169 25.2675L219.917 27.1487L221.313 24.9929L219.634 23.906ZM215.512 21.08L214.716 22.9148L214.724 22.9183L214.732 22.9217L215.512 21.08ZM205.72 20.972L204.87 19.1613L205.72 20.972ZM202.282 23.6L200.749 22.3148V22.3148L202.282 23.6ZM200.14 27.434L198.247 26.7874L198.245 26.7944L198.242 26.8015L200.14 27.434ZM200.23 36.884L198.35 37.5663L198.353 37.5754L198.356 37.5846L200.23 36.884ZM202.534 40.754L204.027 39.4233L202.534 40.754ZM205.972 43.328L205.124 45.1395L205.131 45.1427L205.138 45.1459L205.972 43.328ZM213.784 43.616L214.445 45.5034L213.784 43.616ZM216.916 41.87L218.182 43.4179L218.184 43.4161L216.916 41.87ZM219.13 39.134L217.357 38.2075L217.353 38.2154L217.349 38.2234L219.13 39.134ZM219.958 34.742H221.958V32.742H219.958V34.742ZM209.95 34.742H207.95V36.742H209.95V34.742ZM209.95 31.844V29.844H207.95V31.844H209.95ZM223.702 31.844H225.702V29.844H223.702V31.844ZM222.532 40.412L224.318 41.312L224.321 41.3064L222.532 40.412ZM219.382 44.336L220.638 45.8922L220.64 45.8908L219.382 44.336ZM214.99 46.748L214.345 44.8549L214.34 44.8564L214.99 46.748ZM210.076 45.576C208.284 45.576 206.646 45.2371 205.138 44.5748L203.529 48.2372C205.573 49.1349 207.763 49.576 210.076 49.576V45.576ZM205.153 44.5815C203.627 43.8963 202.293 42.9506 201.141 41.7355L198.239 44.4885C199.75 46.0814 201.513 47.3317 203.515 48.2305L205.153 44.5815ZM201.147 41.742C200.005 40.5275 199.105 39.1103 198.451 37.4732L194.737 38.9588C195.57 41.0417 196.734 42.8885 198.233 44.482L201.147 41.742ZM198.452 37.4773C197.808 35.8569 197.478 34.0935 197.478 32.168H193.478C193.478 34.5625 193.891 36.8311 194.735 38.9547L198.452 37.4773ZM197.478 32.168C197.478 30.3791 197.775 28.6789 198.365 27.0555L194.606 25.6885C193.852 27.7611 193.478 29.9249 193.478 32.168H197.478ZM198.365 27.0555C198.952 25.4412 199.801 24.018 200.912 22.771L197.927 20.109C196.471 21.742 195.363 23.6068 194.606 25.6885L198.365 27.0555ZM200.912 22.771C202.004 21.5471 203.335 20.5691 204.932 19.8387L203.268 16.2013C201.192 17.1509 199.404 18.4529 197.927 20.109L200.912 22.771ZM204.927 19.8407C206.48 19.135 208.279 18.76 210.364 18.76V14.76C207.792 14.76 205.416 15.225 203.272 16.1993L204.927 19.8407ZM210.364 18.76C211.662 18.76 212.892 18.9194 214.058 19.2319L215.093 15.3681C213.572 14.9606 211.993 14.76 210.364 14.76V18.76ZM214.079 19.2372C215.277 19.5448 216.376 19.981 217.383 20.5415L219.329 17.0465C218.007 16.311 216.586 15.7512 215.073 15.3628L214.079 19.2372ZM217.383 20.5415C218.397 21.1063 219.282 21.7673 220.047 22.5217L222.856 19.6743C221.821 18.6527 220.642 17.7777 219.329 17.0465L217.383 20.5415ZM219.773 20.0111L217.955 22.819L221.313 24.9929L223.131 22.1849L219.773 20.0111ZM221.099 22.5445C219.784 21.1299 218.169 20.033 216.291 19.2382L214.732 22.9217C216.143 23.519 217.275 24.3061 218.169 25.2675L221.099 22.5445ZM216.308 19.2452C214.421 18.4269 212.434 18.018 210.364 18.018V22.018C211.893 22.018 213.338 22.3171 214.716 22.9148L216.308 19.2452ZM210.364 18.018C208.377 18.018 206.532 18.382 204.87 19.1613L206.569 22.7827C207.619 22.29 208.87 22.018 210.364 22.018V18.018ZM204.87 19.1613C203.259 19.9171 201.877 20.9697 200.749 22.3148L203.814 24.8852C204.558 23.9983 205.468 23.2989 206.569 22.7827L204.87 19.1613ZM200.749 22.3148C199.648 23.628 198.815 25.1247 198.247 26.7874L202.032 28.0806C202.448 26.8633 203.044 25.804 203.814 24.8852L200.749 22.3148ZM198.242 26.8015C197.69 28.4588 197.42 30.2035 197.42 32.024H201.42C201.42 30.6045 201.629 29.2892 202.037 28.0665L198.242 26.8015ZM197.42 32.024C197.42 33.9839 197.722 35.8374 198.35 37.5663L202.11 36.2017C201.657 34.9546 201.42 33.5681 201.42 32.024H197.42ZM198.356 37.5846C198.989 39.277 199.881 40.7842 201.041 42.0847L204.027 39.4233C203.218 38.5158 202.574 37.443 202.103 36.1834L198.356 37.5846ZM201.041 42.0847C202.201 43.3861 203.565 44.4098 205.124 45.1395L206.819 41.5165C205.763 41.0222 204.835 40.3299 204.027 39.4233L201.041 42.0847ZM205.138 45.1459C206.721 45.8719 208.417 46.228 210.202 46.228V42.228C208.963 42.228 207.839 41.9841 206.806 41.5101L205.138 45.1459ZM210.202 46.228C211.653 46.228 213.07 45.9853 214.445 45.5034L213.122 41.7286C212.169 42.0627 211.199 42.228 210.202 42.228V46.228ZM214.445 45.5034C215.822 45.0209 217.072 44.3263 218.182 43.4179L215.649 40.3221C214.911 40.9257 214.074 41.3951 213.122 41.7286L214.445 45.5034ZM218.184 43.4161C219.328 42.4775 220.243 41.3506 220.91 40.0446L217.349 38.2234C216.937 39.0294 216.375 39.7265 215.647 40.3239L218.184 43.4161ZM220.902 40.0605C221.616 38.694 221.958 37.1958 221.958 35.606H217.958C217.958 36.6082 217.747 37.462 217.357 38.2075L220.902 40.0605ZM221.958 35.606V34.742H217.958V35.606H221.958ZM219.958 32.742H209.95V36.742H219.958V32.742ZM211.95 34.742V31.844H207.95V34.742H211.95ZM209.95 33.844H223.702V29.844H209.95V33.844ZM221.702 31.844V35.048H225.702V31.844H221.702ZM221.702 35.048C221.702 36.802 221.364 38.2756 220.743 39.5176L224.321 41.3064C225.26 39.4284 225.702 37.326 225.702 35.048H221.702ZM220.746 39.512C220.09 40.8122 219.219 41.8954 218.124 42.7812L220.64 45.8908C222.185 44.6406 223.413 43.1078 224.318 41.312L220.746 39.512ZM218.125 42.7799C217.003 43.6859 215.747 44.3771 214.345 44.8549L215.635 48.6411C217.473 48.0149 219.144 47.0981 220.638 45.8922L218.125 42.7799ZM214.34 44.8564C212.937 45.338 211.518 45.576 210.076 45.576V49.576C211.969 49.576 213.826 49.262 215.639 48.6396L214.34 44.8564ZM109.879 102H107.879V104H109.879V102ZM109.879 72.3V70.3H107.879V72.3H109.879ZM113.533 72.3L115.219 71.2242L114.63 70.3H113.533V72.3ZM128.545 95.826L126.859 96.9018L130.545 102.678V95.826H128.545ZM128.545 72.3V70.3H126.545V72.3H128.545ZM132.199 72.3H134.199V70.3H132.199V72.3ZM132.199 102V104H134.199V102H132.199ZM128.545 102L126.86 103.076L127.449 104H128.545V102ZM113.533 78.492L115.219 77.4156L111.533 71.6441V78.492H113.533ZM113.533 102V104H115.533V102H113.533ZM111.879 102V72.3H107.879V102H111.879ZM109.879 74.3H113.533V70.3H109.879V74.3ZM111.847 73.3758L126.859 96.9018L130.231 94.7502L115.219 71.2242L111.847 73.3758ZM130.545 95.826V72.3H126.545V95.826H130.545ZM128.545 74.3H132.199V70.3H128.545V74.3ZM130.199 72.3V102H134.199V72.3H130.199ZM132.199 100H128.545V104H132.199V100ZM130.231 100.924L115.219 77.4156L111.848 79.5684L126.86 103.076L130.231 100.924ZM111.533 78.492V102H115.533V78.492H111.533ZM113.533 100H109.879V104H113.533V100ZM144.834 102H142.834V104H144.834V102ZM144.834 72.3V70.3H142.834V72.3H144.834ZM160.26 72.3H162.26V70.3H160.26V72.3ZM160.26 75.522V77.522H162.26V75.522H160.26ZM148.488 75.522V73.522H146.488V75.522H148.488ZM148.488 85.512H146.488V87.512H148.488V85.512ZM159.828 85.512H161.828V83.512H159.828V85.512ZM159.828 88.716V90.716H161.828V88.716H159.828ZM148.488 88.716V86.716H146.488V88.716H148.488ZM148.488 98.778H146.488V100.778H148.488V98.778ZM160.26 98.778H162.26V96.778H160.26V98.778ZM160.26 102V104H162.26V102H160.26ZM146.834 102V72.3H142.834V102H146.834ZM144.834 74.3H160.26V70.3H144.834V74.3ZM158.26 72.3V75.522H162.26V72.3H158.26ZM160.26 73.522H148.488V77.522H160.26V73.522ZM146.488 75.522V85.512H150.488V75.522H146.488ZM148.488 87.512H159.828V83.512H148.488V87.512ZM157.828 85.512V88.716H161.828V85.512H157.828ZM159.828 86.716H148.488V90.716H159.828V86.716ZM146.488 88.716V98.778H150.488V88.716H146.488ZM148.488 100.778H160.26V96.778H148.488V100.778ZM158.26 98.778V102H162.26V98.778H158.26ZM160.26 100H144.834V104H160.26V100ZM177.308 102L175.39 102.565L175.813 104H177.308V102ZM168.56 72.3V70.3H165.886L166.642 72.8651L168.56 72.3ZM172.628 72.3L174.555 71.7648L174.149 70.3H172.628V72.3ZM179.522 97.122L177.595 97.6572L179.381 104.087L181.426 97.735L179.522 97.122ZM187.514 72.3V70.3H186.057L185.611 71.687L187.514 72.3ZM190.304 72.3L192.208 71.6858L191.761 70.3H190.304V72.3ZM198.314 97.122L196.411 97.7362L198.46 104.087L200.242 97.6559L198.314 97.122ZM205.19 72.3V70.3H203.669L203.263 71.7661L205.19 72.3ZM209.258 72.3L211.177 72.8651L211.932 70.3H209.258V72.3ZM200.51 102V104H202.006L202.429 102.565L200.51 102ZM196.424 102L194.527 102.631L194.982 104H196.424V102ZM188.918 79.428L190.816 78.7969L188.918 73.0898L187.021 78.7969L188.918 79.428ZM181.412 102V104H182.855L183.31 102.631L181.412 102ZM179.227 101.435L170.479 71.7349L166.642 72.8651L175.39 102.565L179.227 101.435ZM168.56 74.3H172.628V70.3H168.56V74.3ZM170.701 72.8352L177.595 97.6572L181.449 96.5868L174.555 71.7648L170.701 72.8352ZM181.426 97.735L189.418 72.913L185.611 71.687L177.619 96.509L181.426 97.735ZM187.514 74.3H190.304V70.3H187.514V74.3ZM188.401 72.9142L196.411 97.7362L200.218 96.5078L192.208 71.6858L188.401 72.9142ZM200.242 97.6559L207.118 72.8339L203.263 71.7661L196.387 96.5881L200.242 97.6559ZM205.19 74.3H209.258V70.3H205.19V74.3ZM207.34 71.7349L198.592 101.435L202.429 102.565L211.177 72.8651L207.34 71.7349ZM200.51 100H196.424V104H200.51V100ZM198.322 101.369L190.816 78.7969L187.021 80.0591L194.527 102.631L198.322 101.369ZM187.021 78.7969L179.515 101.369L183.31 102.631L190.816 80.0591L187.021 78.7969ZM181.412 100H177.308V104H181.412V100ZM222.562 101.964L221.883 103.845L221.892 103.848L221.9 103.851L222.562 101.964ZM219.556 100.434L220.718 98.8065L219.556 100.434ZM217.486 98.67L216.013 100.023L216.02 100.03L216.027 100.038L217.486 98.67ZM216.298 97.284L214.661 96.1343L213.827 97.3224L214.698 98.484L216.298 97.284ZM218.296 94.44L219.841 93.1705L218.171 91.1378L216.659 93.2903L218.296 94.44ZM221.14 97.32L222.362 95.7368L221.14 97.32ZM223.534 98.652L224.268 96.7917L223.534 98.652ZM231.724 96.906L230.096 95.7435L230.09 95.7521L230.084 95.7608L231.724 96.906ZM231.958 91.686L230.221 92.6783L230.225 92.6851L230.229 92.6918L231.958 91.686ZM227.962 88.644L227.145 90.4696L227.155 90.4741L227.165 90.4785L227.962 88.644ZM225.01 87.42L224.262 89.2749L224.275 89.2803L224.289 89.2856L225.01 87.42ZM222.742 86.376L221.803 88.1422L221.814 88.148L221.825 88.1536L222.742 86.376ZM220.618 84.9L219.274 86.3811L219.281 86.388L219.289 86.3948L220.618 84.9ZM219.052 82.812L220.846 81.9283L219.052 82.812ZM219.088 76.836L217.248 76.0509L219.088 76.836ZM220.87 74.226L222.273 75.6513L222.278 75.6458L222.284 75.6402L220.87 74.226ZM223.606 72.426L224.363 74.2771L224.374 74.2728L223.606 72.426ZM230.41 72.3L229.744 74.186L229.751 74.1884L230.41 72.3ZM233.164 73.686L232.015 75.3233L232.023 75.3291L232.032 75.3348L233.164 73.686ZM235.09 75.432L236.776 76.5072L237.538 75.3126L236.663 74.1977L235.09 75.432ZM233.38 78.114L231.793 79.3316L233.531 81.5965L235.066 79.1892L233.38 78.114ZM231.868 76.656L230.653 78.2447L230.663 78.2523L230.673 78.2598L231.868 76.656ZM229.762 75.522L230.445 73.6424V73.6424L229.762 75.522ZM224.362 75.792L225.383 77.5117L225.391 77.507L224.362 75.792ZM222.598 77.574L220.851 76.6003L222.598 77.574ZM222.436 81.804L220.707 82.8092L220.715 82.8241L220.724 82.8388L222.436 81.804ZM223.678 83.118L222.533 84.7583L223.678 83.118ZM225.424 84.072L224.64 85.912L225.424 84.072ZM227.422 84.864L228.152 83.0021L228.133 82.9945L228.113 82.9873L227.422 84.864ZM230.896 86.358L230.041 88.1663L230.049 88.1701L230.058 88.1739L230.896 86.358ZM233.776 88.14L232.502 89.6819L232.509 89.6874L232.515 89.6929L233.776 88.14ZM235.72 90.57L233.926 91.4553L233.931 91.4644L233.935 91.4734L235.72 90.57ZM235.144 98.652L233.484 97.5354L233.482 97.539L235.144 98.652ZM231.634 101.568L232.457 103.391L231.634 101.568ZM226.54 100.576C225.232 100.576 224.136 100.396 223.223 100.077L221.9 103.851C223.316 104.348 224.872 104.576 226.54 104.576V100.576ZM223.241 100.083C222.216 99.7129 221.383 99.2816 220.718 98.8065L218.393 102.061C219.408 102.786 220.58 103.375 221.883 103.845L223.241 100.083ZM220.718 98.8065C219.955 98.2612 219.372 97.758 218.945 97.3021L216.027 100.038C216.679 100.734 217.477 101.407 218.393 102.061L220.718 98.8065ZM218.959 97.3172C218.431 96.7429 218.089 96.3391 217.898 96.084L214.698 98.484C215.01 98.9009 215.46 99.4211 216.013 100.023L218.959 97.3172ZM217.934 98.4337L219.932 95.5897L216.659 93.2903L214.661 96.1343L217.934 98.4337ZM216.75 95.7095C217.049 96.0729 217.439 96.5258 217.915 97.0626L220.908 94.4094C220.448 93.8902 220.095 93.4791 219.841 93.1705L216.75 95.7095ZM217.915 97.0626C218.482 97.7027 219.156 98.3148 219.918 98.9032L222.362 95.7368C221.756 95.2691 221.277 94.8253 220.908 94.4094L217.915 97.0626ZM219.918 98.9032C220.769 99.5603 221.736 100.092 222.799 100.512L224.268 96.7917C223.508 96.4916 222.879 96.1357 222.362 95.7368L219.918 98.9032ZM222.799 100.512C223.982 100.979 225.27 101.192 226.63 101.192V97.192C225.686 97.192 224.909 97.0448 224.268 96.7917L222.799 100.512ZM226.63 101.192C227.96 101.192 229.225 100.957 230.394 100.452L228.806 96.7803C228.199 97.0428 227.484 97.192 226.63 97.192V101.192ZM230.394 100.452C231.605 99.928 232.612 99.1266 233.363 98.0512L230.084 95.7608C229.779 96.1973 229.371 96.536 228.806 96.7803L230.394 100.452ZM233.351 98.0685C234.179 96.9096 234.534 95.5451 234.534 94.098H230.534C230.534 94.8829 230.349 95.3904 230.096 95.7435L233.351 98.0685ZM234.534 94.098C234.534 92.8812 234.286 91.7112 233.686 90.6802L230.229 92.6918C230.397 92.9808 230.534 93.4188 230.534 94.098H234.534ZM233.694 90.6937C233.153 89.7462 232.41 88.9563 231.505 88.3209L229.207 91.5951C229.669 91.9197 229.995 92.2818 230.221 92.6783L233.694 90.6937ZM231.505 88.3209C230.692 87.7504 229.772 87.2494 228.758 86.8095L227.165 90.4785C227.976 90.8306 228.652 91.2056 229.207 91.5951L231.505 88.3209ZM228.779 86.8184C227.831 86.3945 226.815 85.9733 225.731 85.5544L224.289 89.2856C225.317 89.6827 226.269 90.0775 227.145 90.4696L228.779 86.8184ZM225.758 85.5651C225.075 85.2899 224.376 84.9682 223.658 84.5984L221.825 88.1536C222.644 88.5758 223.456 88.9501 224.262 89.2749L225.758 85.5651ZM223.68 84.6098C223.052 84.2762 222.475 83.8752 221.947 83.4052L219.289 86.3948C220.056 87.0768 220.895 87.6598 221.803 88.1422L223.68 84.6098ZM221.962 83.4189C221.505 83.0041 221.134 82.5122 220.846 81.9283L217.258 83.6957C217.762 84.7198 218.435 85.6199 219.274 86.3811L221.962 83.4189ZM220.846 81.9283C220.612 81.4528 220.458 80.8194 220.458 79.968H216.458C216.458 81.3006 216.7 82.5632 217.258 83.6957L220.846 81.9283ZM220.458 79.968C220.458 79.1251 220.617 78.349 220.927 77.6211L217.248 76.0509C216.719 77.291 216.458 78.6029 216.458 79.968H220.458ZM220.927 77.6211C221.244 76.8787 221.689 76.2258 222.273 75.6513L219.467 72.8007C218.514 73.7382 217.771 74.8253 217.248 76.0509L220.927 77.6211ZM222.284 75.6402C222.855 75.0694 223.54 74.6137 224.363 74.2771L222.849 70.5749C221.559 71.1023 220.421 71.8466 219.456 72.8118L222.284 75.6402ZM224.374 74.2728C225.171 73.9414 226.088 73.76 227.152 73.76V69.76C225.624 69.76 224.177 70.0226 222.838 70.5792L224.374 74.2728ZM227.152 73.76C228.092 73.76 228.951 73.9062 229.744 74.186L231.075 70.414C229.828 69.9738 228.516 69.76 227.152 69.76V73.76ZM229.751 74.1884C230.628 74.4944 231.378 74.8764 232.015 75.3233L234.312 72.0487C233.342 71.3676 232.255 70.8256 231.069 70.4116L229.751 74.1884ZM232.032 75.3348C232.709 75.7997 233.189 76.2486 233.516 76.6663L236.663 74.1977C236.031 73.3914 235.227 72.6763 234.296 72.0372L232.032 75.3348ZM233.403 74.3568L231.693 77.0388L235.066 79.1892L236.776 76.5072L233.403 74.3568ZM234.966 76.8964C234.441 76.2115 233.798 75.5998 233.063 75.0522L230.673 78.2598C231.162 78.6242 231.527 78.9845 231.793 79.3316L234.966 76.8964ZM233.083 75.0673C232.295 74.4649 231.41 73.9934 230.445 73.6424L229.078 77.4016C229.697 77.6266 230.217 77.9111 230.653 78.2447L233.083 75.0673ZM230.445 73.6424C229.417 73.2684 228.332 73.09 227.206 73.09V77.09C227.904 77.09 228.523 77.1996 229.078 77.4016L230.445 73.6424ZM227.206 73.09C225.809 73.09 224.487 73.3844 223.333 74.077L225.391 77.507C225.796 77.2636 226.37 77.09 227.206 77.09V73.09ZM223.341 74.0723C222.29 74.6962 221.442 75.5395 220.851 76.6003L224.345 78.5477C224.57 78.1445 224.898 77.7998 225.383 77.5117L223.341 74.0723ZM220.851 76.6003C220.279 77.6262 219.986 78.7409 219.986 79.914H223.986C223.986 79.4311 224.101 78.9858 224.345 78.5477L220.851 76.6003ZM219.986 79.914C219.986 80.925 220.19 81.9212 220.707 82.8092L224.165 80.7988C224.081 80.6548 223.986 80.391 223.986 79.914H219.986ZM220.724 82.8388C221.187 83.6045 221.798 84.2454 222.533 84.7583L224.822 81.4777C224.525 81.2706 224.308 81.0355 224.147 80.7692L220.724 82.8388ZM222.533 84.7583C223.175 85.2058 223.88 85.5884 224.64 85.912L226.208 82.2319C225.671 82.0036 225.213 81.7502 224.822 81.4777L222.533 84.7583ZM224.64 85.912C225.32 86.2015 226.016 86.4776 226.73 86.7407L228.113 82.9873C227.459 82.7464 226.824 82.4945 226.208 82.2319L224.64 85.912ZM226.692 86.7259C227.877 87.1909 228.994 87.6712 230.041 88.1663L231.75 84.5497C230.614 84.0128 229.414 83.4971 228.152 83.0021L226.692 86.7259ZM230.058 88.1739C231.012 88.6142 231.822 89.1198 232.502 89.6819L235.05 86.5981C234.074 85.7922 232.964 85.1098 231.734 84.5421L230.058 88.1739ZM232.515 89.6929C233.122 90.185 233.587 90.768 233.926 91.4553L237.513 89.6847C236.916 88.476 236.086 87.439 235.036 86.5871L232.515 89.6929ZM233.935 91.4734C234.241 92.0771 234.44 92.8969 234.44 94.008H238.44C238.44 92.4311 238.158 90.9589 237.504 89.6665L233.935 91.4734ZM234.44 94.008C234.44 95.4918 234.09 96.6348 233.484 97.5355L236.803 99.7685C237.925 98.1012 238.44 96.1482 238.44 94.008H234.44ZM233.482 97.539C232.852 98.48 231.982 99.2163 230.811 99.7453L232.457 103.391C234.262 102.576 235.732 101.368 236.805 99.765L233.482 97.539ZM230.811 99.7453C229.621 100.282 228.211 100.576 226.54 100.576V104.576C228.684 104.576 230.67 104.198 232.457 103.391L230.811 99.7453Z" fill="white"/>
</g>
<defs>
<filter id="filter0_d_106_219" x="0.367432" y="0.759766" width="256.072" height="125.816" filterUnits="userSpaceOnUse" color-interpolation-filters="sRGB">
<feFlood flood-opacity="0" result="BackgroundImageFix"/>
<feColorMatrix in="SourceAlpha" type="matrix" values="0 0 0 0 0 0 0 0 0 0 0 0 0 0 0 0 0 0 127 0" result="hardAlpha"/>
<feOffset dy="4"/>
<feGaussianBlur stdDeviation="10"/>
<feComposite in2="hardAlpha" operator="out"/>
<feColorMatrix type="matrix" values="0 0 0 0 0 0 0 0 0 0 0 0 0 0 0 0 0 0 0.43 0"/>
<feBlend mode="normal" in2="BackgroundImageFix" result="effect1_dropShadow_106_219"/>
<feBlend mode="normal" in="SourceGraphic" in2="effect1_dropShadow_106_219" result="shape"/>
</filter>
</defs>
</svg>
