<svg width="31" height="31" viewBox="0 0 31 31" fill="none" xmlns="http://www.w3.org/2000/svg">
<path d="M12.6093 1.98621C14.7103 1.9843 16.7647 2.60489 18.5126 3.76949C20.2605 4.93409 21.6233 6.59036 22.4286 8.52878C23.234 10.4672 23.4457 12.6007 23.037 14.6593C22.6283 16.718 21.6175 18.6093 20.1325 20.094C18.6476 21.5787 16.7551 22.5901 14.6946 23.0002C12.6341 23.4104 10.4981 23.2008 8.55679 22.3981C6.61551 21.5954 4.95618 20.2356 3.78871 18.4907C2.62124 16.7458 1.99809 14.6942 1.99809 12.5955C2.01083 9.78734 3.13258 7.09767 5.11953 5.11107C7.10649 3.12448 9.79807 2.0015 12.6093 1.98621ZM12.6093 0C10.1154 0 7.67754 0.738713 5.60395 2.12272C3.53036 3.50674 1.9142 5.47388 0.959831 7.77541C0.00546358 10.0769 -0.244243 12.6095 0.24229 15.0528C0.728822 17.496 1.92974 19.7403 3.69318 21.5019C5.45662 23.2634 7.70338 24.463 10.1493 24.949C12.5953 25.435 15.1306 25.1855 17.4347 24.2322C19.7387 23.2789 21.708 21.6645 23.0935 19.5932C24.4791 17.5219 25.2186 15.0867 25.2186 12.5955C25.2186 9.25496 23.8901 6.05125 21.5254 3.68914C19.1607 1.32702 15.9535 0 12.6093 0Z" fill="white"/>
<path d="M30.7182 29.3475L23.5697 22.1584L22.1924 23.5245L29.3408 30.7136C29.4306 30.804 29.5374 30.8758 29.655 30.9249C29.7725 30.974 29.8986 30.9995 30.0261 31C30.1535 31.0004 30.2798 30.9758 30.3977 30.9275C30.5156 30.8792 30.6229 30.8082 30.7133 30.7185C30.8038 30.6288 30.8756 30.5222 30.9248 30.4047C30.974 30.2873 30.9995 30.1613 31 30.034C31.0004 29.9067 30.9758 29.7805 30.9274 29.6628C30.8791 29.545 30.808 29.4378 30.7182 29.3475Z" fill="white"/>
</svg>
